<svg width="15" height="18" viewBox="0 0 15 18" fill="none" xmlns="http://www.w3.org/2000/svg">
<path d="M0.666687 15.8999V2.09993C0.666687 1.72216 0.80002 1.40549 1.06669 1.14993C1.33335 0.894379 1.64446 0.766602 2.00002 0.766602C2.11113 0.766602 2.2278 0.783268 2.35002 0.816602C2.47224 0.849935 2.58891 0.899935 2.70002 0.966602L13.5667 7.8666C13.7667 7.99994 13.9167 8.1666 14.0167 8.3666C14.1167 8.5666 14.1667 8.77771 14.1667 8.99994C14.1667 9.22216 14.1167 9.43327 14.0167 9.63327C13.9167 9.83327 13.7667 9.99994 13.5667 10.1333L2.70002 17.0333C2.58891 17.0999 2.47224 17.1499 2.35002 17.1833C2.2278 17.2166 2.11113 17.2333 2.00002 17.2333C1.64446 17.2333 1.33335 17.1055 1.06669 16.8499C0.80002 16.5944 0.666687 16.2777 0.666687 15.8999Z" fill="white"/>
</svg>
